<svg xmlns="http://www.w3.org/2000/svg" width="610.25" height="269.47" viewBox="0 0 161.46198 71.297273"><path fill="#E42313" d="m149.913 7.593-2.173-6.166a2.135 2.135 0 0 0-2.728-1.303 2.137 2.137 0 0 0-1.306 2.725l2.29 6.498 2.749 1.558z"/><path fill="#EC6707" d="m153.826 9.347 2.29-6.498a2.138 2.138 0 0 0-4.03-1.422l-2.174 6.166 1.166 3.312z"/><path fill="#E42313" d="M161.184 7.63a2.138 2.138 0 0 0-2.916-.801l-4.442 2.518-1.2 3.413 2.32.871 5.431-3.085a2.139 2.139 0 0 0 .807-2.915"/><path fill="#EC6707" d="m152.05 17.11 4.657 1.746a2.14 2.14 0 0 0 2.754-1.252 2.139 2.139 0 0 0-1.252-2.753l-3.263-1.22-2.895 1.64z"/><path fill="#E42313" d="M147.771 17.11v3.379c0 1.179.96 2.135 2.141 2.135 1.18 0 2.139-.956 2.139-2.135v-3.38l-2.139-.8zM144.876 13.631l-3.26 1.22a2.138 2.138 0 0 0 1.499 4.005l4.656-1.747v-1.838z"/><path fill="#EC6707" d="m145.995 9.347-4.44-2.518a2.138 2.138 0 0 0-2.915.802 2.14 2.14 0 0 0 .807 2.915l5.429 3.085 2.322-.87z"/><path fill="#E42313" d="M69.082 70.65c7.535 0 14.402-3.184 19.263-8.213a27.902 27.902 0 0 0 6.92-12.248L103.68 66A7.521 7.521 0 0 0 110.315 70c2.783 0 5.33-1.541 6.638-3.999l20.561-38.627a7.526 7.526 0 0 0-3.116-10.186c-3.678-1.955-8.246-.56-10.2 3.114L110.936 46.14l-.62 2.123-.617-2.123-13.265-25.838c-1.951-3.673-6.518-5.069-10.196-3.114a7.524 7.524 0 0 0-3.116 10.186l4.953 9.313H72.788c-3.464 0-6.276 2.896-6.276 6.47 0 3.573 2.812 6.468 6.276 6.468h7.559c-2.036 3.134-5.498 6.176-11.287 6.176-3.36-.006-6.352-1.373-8.629-3.701-2.259-2.338-3.68-5.56-3.683-9.212-.01-6.334 4.337-11.458 9.753-12.635a7.43 7.43 0 0 0 5.645-8.856 7.415 7.415 0 0 0-4.16-5.144c-2.96-1.292-6.6 0-6.6 0-11.395 3.43-19.48 14.132-19.488 26.635 0 1.614.142 3.199.404 4.743-2.376 3.916-6.851 8.834-14.342 8.834-7.198-.015-13.125-5.911-13.128-13.307.003-6.572 4.675-11.958 10.76-13.092 0 0 1.534-.297 4-.503 2.37-.2 5.785-2.968 5.785-7.135a7.415 7.415 0 0 0-7.417-7.415C12.466 15.025.03 27.66 0 43.158c.029 15.492 12.466 28.13 27.96 28.14 8.435-.007 15.957-3.756 21.07-9.667 0 0 7.183 9.02 20.052 9.02"/></svg>